<?xml version="1.0" encoding="UTF-8"?>
<svg id="Layer_1" data-name="Layer 1" xmlns="http://www.w3.org/2000/svg" viewBox="0 0 517.89 528.13">
  <defs>
    <style>
      .cls-1 {
        fill: #279b75;
      }
    </style>
  </defs>
  <path class="cls-1" d="M511.6,173.55c-3.15-2.43-8.51,3.57-11.52,7.26-7.08,8.51-16.71,16.64-28.54,24.05-42.42,26.07-97.36,38.49-149.24,44.19-91.53,10.21-246.09-1.45-305.32-69.14C3.46,162.17.21,184.83,0,194.6c-.18,15.76,5.38,27.98,14.36,40.36,81.5,111.65,446.31,112.27,500.75-21.87,3.61-10.67,4.84-31.32-3.38-39.47l-.13-.08Z"/>
  <path class="cls-1" d="M511.6,279.43c-3.15-2.43-8.51,3.57-11.52,7.26-7.08,8.51-16.71,16.64-28.54,24.05-42.42,26.07-97.36,38.49-149.24,44.19-91.53,10.21-246.09-1.45-305.32-69.14C3.46,268.05.21,290.71,0,300.48c-.18,15.76,5.38,27.98,14.36,40.36,81.5,111.65,446.31,112.27,500.75-21.87,3.61-10.67,4.84-31.32-3.38-39.47l-.13-.08Z"/>
  <path class="cls-1" d="M511.6,385.31c-3.15-2.43-8.51,3.57-11.52,7.26-7.08,8.51-16.71,16.64-28.54,24.05-42.42,26.07-97.36,38.49-149.24,44.19-91.53,10.21-246.09-1.45-305.32-69.14C3.46,373.93.21,396.59,0,406.36c-.18,15.76,5.38,27.98,14.36,40.36,81.5,111.65,446.31,112.27,500.75-21.87,3.61-10.67,4.84-31.32-3.38-39.47l-.13-.08Z"/>
  <ellipse class="cls-1" cx="258.95" cy="105.24" rx="254.6" ry="105.24"/>
</svg>